<?xml version="1.0" standalone="no"?><!-- Generator: Gravit.io --><svg xmlns="http://www.w3.org/2000/svg" xmlns:xlink="http://www.w3.org/1999/xlink" style="isolation:isolate" viewBox="584.931 350.931 92.137 96.666" width="92.137" height="96.666"><g id="Group"><path d=" M 625.807 387.702 L 625.807 387.702 L 625.807 387.702 Q 624.037 385.516 622.184 385.525 L 622.184 385.525 L 622.184 385.525 Q 620.733 385.532 619.75 386.555 L 619.75 386.555 L 619.75 386.555 Q 618.766 387.577 618.772 388.976 L 618.772 388.976 L 618.772 388.976 Q 618.779 390.376 619.57 391.294 L 619.57 391.294 L 619.57 391.294 Q 620.362 392.213 621.538 392.812 L 621.538 392.812 L 621.538 392.812 Q 622.714 393.41 624.076 394.215 L 624.076 394.215 L 624.076 394.215 Q 625.439 395.019 626.616 395.888 L 626.616 395.888 L 626.616 395.888 Q 627.793 396.757 628.587 398.264 L 628.587 398.264 L 628.587 398.264 Q 629.382 399.771 629.391 401.966 L 629.391 401.966 L 629.391 401.966 Q 629.401 404.16 628.577 406.327 L 628.577 406.327 L 628.577 406.327 Q 627.753 408.494 626.402 410.058 L 626.402 410.058 L 626.402 410.058 Q 625.05 411.623 623.295 412.745 L 623.295 412.745 L 623.295 412.745 Q 619.785 414.988 615.986 415.006 L 615.986 415.006 L 615.986 415.006 Q 613.424 415.018 611.519 413.723 L 611.519 413.723 L 611.519 413.723 Q 609.614 412.428 609.606 410.775 L 609.606 410.775 L 609.606 410.775 Q 609.599 409.121 611.112 409.114 L 611.112 409.114 L 611.112 409.114 Q 611.699 409.111 613.497 410.788 L 613.497 410.788 L 613.497 410.788 Q 614.179 411.421 615.371 411.94 L 615.371 411.94 L 615.371 411.94 Q 616.562 412.459 618.028 412.452 L 618.028 412.452 L 618.028 412.452 Q 619.495 412.445 621.098 411.865 L 621.098 411.865 L 621.098 411.865 Q 622.702 411.285 624.102 410.213 L 624.102 410.213 L 624.102 410.213 Q 625.502 409.14 626.359 407.371 L 626.359 407.371 L 626.359 407.371 Q 627.215 405.602 627.206 403.423 L 627.206 403.423 L 627.206 403.423 Q 627.196 401.245 626.077 399.723 L 626.077 399.723 L 626.077 399.723 Q 624.959 398.202 623.38 397.351 L 623.38 397.351 L 623.38 397.351 Q 621.801 396.5 620.223 395.696 L 620.223 395.696 L 620.223 395.696 Q 618.644 394.893 617.527 393.626 L 617.527 393.626 L 617.527 393.626 Q 616.41 392.359 616.402 390.53 L 616.402 390.53 L 616.402 390.53 Q 616.393 388.701 617.174 387.267 L 617.174 387.267 L 617.174 387.267 Q 617.955 385.832 619.156 385.094 L 619.156 385.094 L 619.156 385.094 Q 621.435 383.62 623.689 383.61 L 623.689 383.61 L 623.689 383.61 Q 625.943 383.599 627.368 384.674 L 627.368 384.674 L 627.368 384.674 Q 628.794 385.748 628.8 387.148 L 628.8 387.148 L 628.8 387.148 Q 628.804 387.974 628.404 388.406 L 628.404 388.406 L 628.404 388.406 Q 628.005 388.837 627.48 388.839 L 627.48 388.839 L 627.48 388.839 Q 626.955 388.842 626.598 388.542 L 626.598 388.542 L 626.598 388.542 Q 626.242 388.241 625.807 387.702 Z  M 646.712 401.311 L 646.712 401.311 L 646.444 396.7 L 646.444 396.7 Q 646.441 396.064 646.856 395.569 L 646.856 395.569 L 646.856 395.569 Q 647.271 395.074 647.919 395.071 L 647.919 395.071 L 647.919 395.071 Q 648.568 395.068 648.987 395.559 L 648.987 395.559 L 648.987 395.559 Q 649.406 396.05 649.409 396.686 L 649.409 396.686 L 649.409 396.686 Q 649.409 396.782 649.281 399.136 L 649.281 399.136 L 649.281 399.136 Q 649.216 400.313 649.188 401.669 C 649.169 402.573 649.161 403.536 649.166 404.559 L 649.166 404.559 L 649.166 404.559 Q 649.18 407.628 649.331 410.267 L 649.331 410.267 L 649.331 410.267 Q 649.481 412.906 649.484 413.383 L 649.484 413.383 L 649.484 413.383 Q 649.486 413.861 649.071 414.34 L 649.071 414.34 L 649.071 414.34 Q 648.656 414.819 648.008 414.822 L 648.008 414.822 L 648.008 414.822 Q 647.359 414.825 646.94 414.35 L 646.94 414.35 L 646.94 414.35 Q 646.521 413.875 646.519 413.366 L 646.519 413.366 L 646.519 413.366 Q 646.517 412.857 646.628 410.232 L 646.628 410.232 L 646.628 410.232 Q 646.74 407.608 646.758 404.714 L 646.758 404.714 L 646.752 403.378 L 646.752 403.378 Q 645.71 404.247 644.628 404.811 C 643.305 405.501 641.938 405.85 640.526 405.857 L 640.526 405.857 L 640.526 405.857 Q 636.511 405.876 633.765 402.915 L 633.765 402.915 L 633.765 402.915 Q 631.019 399.954 631 395.724 L 631 395.724 L 631 395.724 Q 630.976 390.445 634.033 386.995 L 634.033 386.995 L 634.033 386.995 Q 637.09 383.546 641.846 383.523 L 641.846 383.523 L 641.846 383.523 Q 644.594 383.51 646.899 384.628 L 646.899 384.628 L 646.899 384.628 Q 649.205 385.746 649.212 387.209 L 649.212 387.209 L 649.212 387.209 Q 649.214 387.845 648.8 388.293 L 648.8 388.293 L 648.8 388.293 Q 648.385 388.74 647.798 388.743 L 647.798 388.743 L 647.798 388.743 Q 647.211 388.745 646.622 388.271 L 646.622 388.271 L 646.622 388.271 Q 646.034 387.797 645.491 387.211 L 645.491 387.211 L 645.491 387.211 Q 644.948 386.625 643.787 386.154 L 643.787 386.154 L 643.787 386.154 Q 642.627 385.682 641.053 385.69 L 641.053 385.69 L 641.053 385.69 Q 637.501 385.707 635.505 388.038 L 635.505 388.038 L 635.505 388.038 Q 633.508 390.369 633.525 394.186 L 633.525 394.186 L 633.525 394.186 Q 633.542 398.002 635.763 400.854 L 635.763 400.854 L 635.763 400.854 Q 637.984 403.706 641.535 403.689 L 641.535 403.689 L 641.535 403.689 Q 644.314 403.676 646.712 401.311 Z " fill-rule="evenodd" fill="rgb(232,232,232)" vector-effect="non-scaling-stroke" stroke-width="4.353" stroke="rgb(151,175,189)" stroke-linejoin="miter" stroke-linecap="square" stroke-miterlimit="3"/><rect x="599.771" y="368.1" width="62.459" height="62.329" transform="matrix(0.683,0.73,-0.695,0.721,477.321,-349.232)" fill="none" vector-effect="non-scaling-stroke" stroke-width="2.046" stroke="rgb(151,175,189)" stroke-linejoin="miter" stroke-linecap="square" stroke-miterlimit="3"/></g></svg>