<?xml version="1.0" standalone="no"?><!-- Generator: Gravit.io --><svg xmlns="http://www.w3.org/2000/svg" xmlns:xlink="http://www.w3.org/1999/xlink" style="isolation:isolate" viewBox="662.792 314.158 70.417 49.051" width="70.417" height="49.051"><defs><filter id="aZaGJEO9B9lOaMzw7VOJjZlULuhKzbb7" x="-200%" y="-200%" width="400%" height="400%"><feGaussianBlur xmlns="http://www.w3.org/2000/svg" stdDeviation="0"/></filter></defs><g filter="url(#aZaGJEO9B9lOaMzw7VOJjZlULuhKzbb7)"><path d=" M 692.001 323.026 L 692.001 323.026 L 692.001 323.026 Q 689.16 320.065 686.187 320.077 L 686.187 320.077 L 686.187 320.077 Q 683.858 320.086 682.279 321.471 L 682.279 321.471 L 682.279 321.471 Q 680.701 322.856 680.711 324.751 L 680.711 324.751 L 680.711 324.751 Q 680.721 326.646 681.991 327.89 L 681.991 327.89 L 681.991 327.89 Q 683.262 329.134 685.149 329.944 L 685.149 329.944 L 685.149 329.944 Q 687.037 330.755 689.223 331.845 L 689.223 331.845 L 689.223 331.845 Q 691.41 332.934 693.299 334.111 L 693.299 334.111 L 693.299 334.111 Q 695.189 335.288 696.463 337.328 L 696.463 337.328 L 696.463 337.328 Q 697.738 339.369 697.754 342.341 L 697.754 342.341 L 697.754 342.341 Q 697.769 345.313 696.447 348.247 L 696.447 348.247 L 696.447 348.247 Q 695.125 351.181 692.955 353.3 L 692.955 353.3 L 692.955 353.3 Q 690.786 355.419 687.969 356.938 L 687.969 356.938 L 687.969 356.938 Q 682.335 359.975 676.24 360 L 676.24 360 L 676.24 360 Q 672.126 360.016 669.069 358.263 L 669.069 358.263 L 669.069 358.263 Q 666.012 356.509 666 354.27 L 666 354.27 L 666 354.27 Q 665.988 352.03 668.416 352.02 L 668.416 352.02 L 668.416 352.02 Q 669.358 352.017 672.245 354.288 L 672.245 354.288 L 672.245 354.288 Q 673.339 355.145 675.251 355.848 L 675.251 355.848 L 675.251 355.848 Q 677.163 356.551 679.517 356.541 L 679.517 356.541 L 679.517 356.541 Q 681.871 356.532 684.444 355.746 L 684.444 355.746 L 684.444 355.746 Q 687.017 354.96 689.264 353.509 L 689.264 353.509 L 689.264 353.509 Q 691.511 352.057 692.886 349.661 L 692.886 349.661 L 692.886 349.661 Q 694.261 347.265 694.245 344.315 L 694.245 344.315 L 694.245 344.315 Q 694.23 341.364 692.435 339.304 L 692.435 339.304 L 692.435 339.304 Q 690.64 337.244 688.106 336.091 L 688.106 336.091 L 688.106 336.091 Q 685.572 334.939 683.039 333.851 L 683.039 333.851 L 683.039 333.851 Q 680.506 332.763 678.712 331.047 L 678.712 331.047 L 678.712 331.047 Q 676.919 329.331 676.906 326.855 L 676.906 326.855 L 676.906 326.855 Q 676.893 324.378 678.146 322.435 L 678.146 322.435 L 678.146 322.435 Q 679.4 320.492 681.327 319.494 L 681.327 319.494 L 681.327 319.494 Q 684.984 317.498 688.602 317.483 L 688.602 317.483 L 688.602 317.483 Q 692.219 317.469 694.507 318.924 L 694.507 318.924 L 694.507 318.924 Q 696.794 320.379 696.804 322.274 L 696.804 322.274 L 696.804 322.274 Q 696.81 323.394 696.169 323.978 L 696.169 323.978 L 696.169 323.978 Q 695.528 324.562 694.685 324.565 L 694.685 324.565 L 694.685 324.565 Q 693.843 324.569 693.271 324.162 L 693.271 324.162 L 693.271 324.162 Q 692.699 323.755 692.001 323.026 Z  M 725.552 341.454 L 725.552 341.454 L 725.122 335.21 L 725.122 335.21 Q 725.117 334.349 725.783 333.679 L 725.783 333.679 L 725.783 333.679 Q 726.448 333.009 727.489 333.004 L 727.489 333.004 L 727.489 333.004 Q 728.53 333 729.202 333.665 L 729.202 333.665 L 729.202 333.665 Q 729.875 334.33 729.88 335.191 L 729.88 335.191 L 729.88 335.191 Q 729.88 335.32 729.674 338.508 L 729.674 338.508 L 729.674 338.508 Q 729.468 341.696 729.49 345.853 L 729.49 345.853 L 729.49 345.853 Q 729.512 350.009 729.755 353.583 L 729.755 353.583 L 729.755 353.583 Q 729.997 357.156 730 357.803 L 730 357.803 L 730 357.803 Q 730.003 358.449 729.338 359.097 L 729.338 359.097 L 729.338 359.097 Q 728.672 359.746 727.632 359.75 L 727.632 359.75 L 727.632 359.75 Q 726.591 359.754 725.918 359.111 L 725.918 359.111 L 725.918 359.111 Q 725.246 358.468 725.242 357.779 L 725.242 357.779 L 725.242 357.779 Q 725.238 357.089 725.418 353.535 L 725.418 353.535 L 725.418 353.535 Q 725.597 349.981 725.626 346.062 L 725.626 346.062 L 725.616 344.253 L 725.616 344.253 Q 720.876 347.589 715.623 347.61 L 715.623 347.61 L 715.623 347.61 Q 709.18 347.636 704.773 343.626 L 704.773 343.626 L 704.773 343.626 Q 700.366 339.617 700.335 333.889 L 700.335 333.889 L 700.335 333.889 Q 700.297 326.739 705.204 322.068 L 705.204 322.068 L 705.204 322.068 Q 710.11 317.397 717.742 317.366 L 717.742 317.366 L 717.742 317.366 Q 722.153 317.348 725.853 318.862 L 725.853 318.862 L 725.853 318.862 Q 729.553 320.377 729.564 322.358 L 729.564 322.358 L 729.564 322.358 Q 729.568 323.219 728.902 323.825 L 728.902 323.825 L 728.902 323.825 Q 728.236 324.43 727.295 324.434 L 727.295 324.434 L 727.295 324.434 Q 726.353 324.438 725.408 323.796 L 725.408 323.796 L 725.408 323.796 Q 724.463 323.153 723.592 322.36 L 723.592 322.36 L 723.592 322.36 Q 722.72 321.567 720.858 320.928 L 720.858 320.928 L 720.858 320.928 Q 718.996 320.29 716.469 320.3 L 716.469 320.3 L 716.469 320.3 Q 710.77 320.323 707.565 323.48 L 707.565 323.48 L 707.565 323.48 Q 704.361 326.637 704.388 331.805 L 704.388 331.805 L 704.388 331.805 Q 704.416 336.973 707.98 340.835 L 707.98 340.835 L 707.98 340.835 Q 711.544 344.697 717.243 344.674 L 717.243 344.674 L 717.243 344.674 Q 721.703 344.656 725.552 341.454 Z " fill-rule="evenodd" fill="rgb(17,78,121)" vector-effect="non-scaling-stroke" stroke-width="6.417" stroke="rgb(48,67,78)" stroke-opacity="0.5" stroke-linejoin="miter" stroke-linecap="square" stroke-miterlimit="3"/></g></svg>